<svg xmlns="http://www.w3.org/2000/svg" width="2.6439395cm" height="2.6439395cm" preserveAspectRatio="none" viewBox="0 0 25.000001 25.000001"><g fill="#f27354"><path d="M0 0H1V1H0zM1 0H2V1H1zM2 0H3V1H2zM3 0H4V1H3zM4 0H5V1H4zM5 0H6V1H5zM6 0H7V1H6zM10 0H11V1H10zM15 0H16V1H15zM18 0H19V1H18zM19 0H20V1H19zM20 0H21V1H20zM21 0H22V1H21zM22 0H23V1H22zM23 0H24V1H23zM24 0H25V1H24zM0 1H1V2H0zM6 1H7V2H6zM8 1H9V2H8zM9 1H10V2H9zM10 1H11V2H10zM15 1H16V2H15zM18 1H19V2H18zM24 1H25V2H24zM0 2H1V3H0zM2 2H3V3H2zM3 2H4V3H3zM4 2H5V3H4zM6 2H7V3H6zM8 2H9V3H8zM14 2H15V3H14zM16 2H17V3H16zM18 2H19V3H18zM20 2H21V3H20zM21 2H22V3H21zM22 2H23V3H22zM24 2H25V3H24zM0 3H1V4H0zM2 3H3V4H2zM3 3H4V4H3zM4 3H5V4H4zM6 3H7V4H6zM9 3H10V4H9zM12 3H13V4H12zM14 3H15V4H14zM15 3H16V4H15zM18 3H19V4H18zM20 3H21V4H20zM21 3H22V4H21zM22 3H23V4H22zM24 3H25V4H24zM0 4H1V5H0zM2 4H3V5H2zM3 4H4V5H3zM4 4H5V5H4zM6 4H7V5H6zM8 4H9V5H8zM9 4H10V5H9zM10 4H11V5H10zM12 4H13V5H12zM13 4H14V5H13zM14 4H15V5H14zM15 4H16V5H15zM16 4H17V5H16zM18 4H19V5H18zM20 4H21V5H20zM21 4H22V5H21zM22 4H23V5H22zM24 4H25V5H24zM0 5H1V6H0zM6 5H7V6H6zM8 5H9V6H8zM10 5H11V6H10zM12 5H13V6H12zM13 5H14V6H13zM15 5H16V6H15zM18 5H19V6H18zM24 5H25V6H24zM0 6H1V7H0zM1 6H2V7H1zM2 6H3V7H2zM3 6H4V7H3zM4 6H5V7H4zM5 6H6V7H5zM6 6H7V7H6zM8 6H9V7H8zM10 6H11V7H10zM12 6H13V7H12zM14 6H15V7H14zM16 6H17V7H16zM18 6H19V7H18zM19 6H20V7H19zM20 6H21V7H20zM21 6H22V7H21zM22 6H23V7H22zM23 6H24V7H23zM24 6H25V7H24zM8 7H9V8H8zM10 7H11V8H10zM11 7H12V8H11zM14 7H15V8H14zM16 7H17V8H16zM0 8H1V9H0zM1 8H2V9H1zM3 8H4V9H3zM6 8H7V9H6zM7 8H8V9H7zM11 8H12V9H11zM12 8H13V9H12zM13 8H14V9H13zM14 8H15V9H14zM16 8H17V9H16zM18 8H19V9H18zM19 8H20V9H19zM20 8H21V9H20zM22 8H23V9H22zM23 8H24V9H23zM3 9H4V10H3zM5 9H6V10H5zM9 9H10V10H9zM11 9H12V10H11zM12 9H13V10H12zM16 9H17V10H16zM17 9H18V10H17zM18 9H19V10H18zM24 9H25V10H24zM0 10H1V11H0zM1 10H2V11H1zM3 10H4V11H3zM5 10H6V11H5zM6 10H7V11H6zM7 10H8V11H7zM8 10H9V11H8zM11 10H12V11H11zM12 10H13V11H12zM17 10H18V11H17zM23 10H24V11H23zM24 10H25V11H24zM0 11H1V12H0zM1 11H2V12H1zM2 11H3V12H2zM3 11H4V12H3zM5 11H6V12H5zM8 11H9V12H8zM9 11H10V12H9zM10 11H11V12H10zM11 11H12V12H11zM12 11H13V12H12zM13 11H14V12H13zM14 11H15V12H14zM16 11H17V12H16zM19 11H20V12H19zM20 11H21V12H20zM0 12H1V13H0zM1 12H2V13H1zM2 12H3V13H2zM3 12H4V13H3zM5 12H6V13H5zM6 12H7V13H6zM7 12H8V13H7zM8 12H9V13H8zM10 12H11V13H10zM11 12H12V13H11zM12 12H13V13H12zM13 12H14V13H13zM15 12H16V13H15zM16 12H17V13H16zM17 12H18V13H17zM18 12H19V13H18zM19 12H20V13H19zM21 12H22V13H21zM23 12H24V13H23zM24 12H25V13H24zM1 13H2V14H1zM2 13H3V14H2zM4 13H5V14H4zM5 13H6V14H5zM7 13H8V14H7zM8 13H9V14H8zM11 13H12V14H11zM16 13H17V14H16zM17 13H18V14H17zM18 13H19V14H18zM19 13H20V14H19zM21 13H22V14H21zM22 13H23V14H22zM24 13H25V14H24zM0 14H1V15H0zM2 14H3V15H2zM3 14H4V15H3zM4 14H5V15H4zM6 14H7V15H6zM7 14H8V15H7zM8 14H9V15H8zM10 14H11V15H10zM11 14H12V15H11zM14 14H15V15H14zM17 14H18V15H17zM19 14H20V15H19zM20 14H21V15H20zM22 14H23V15H22zM24 14H25V15H24zM1 15H2V16H1zM3 15H4V16H3zM4 15H5V16H4zM7 15H8V16H7zM8 15H9V16H8zM9 15H10V16H9zM12 15H13V16H12zM13 15H14V16H13zM20 15H21V16H20zM23 15H24V16H23zM0 16H1V17H0zM1 16H2V17H1zM4 16H5V17H4zM6 16H7V17H6zM7 16H8V17H7zM9 16H10V17H9zM10 16H11V17H10zM11 16H12V17H11zM12 16H13V17H12zM14 16H15V17H14zM16 16H17V17H16zM17 16H18V17H17zM18 16H19V17H18zM19 16H20V17H19zM20 16H21V17H20zM21 16H22V17H21zM22 16H23V17H22zM8 17H9V18H8zM11 17H12V18H11zM14 17H15V18H14zM16 17H17V18H16zM20 17H21V18H20zM21 17H22V18H21zM24 17H25V18H24zM0 18H1V19H0zM1 18H2V19H1zM2 18H3V19H2zM3 18H4V19H3zM4 18H5V19H4zM5 18H6V19H5zM6 18H7V19H6zM8 18H9V19H8zM9 18H10V19H9zM10 18H11V19H10zM13 18H14V19H13zM15 18H16V19H15zM16 18H17V19H16zM18 18H19V19H18zM20 18H21V19H20zM21 18H22V19H21zM23 18H24V19H23zM24 18H25V19H24zM0 19H1V20H0zM6 19H7V20H6zM10 19H11V20H10zM11 19H12V20H11zM12 19H13V20H12zM16 19H17V20H16zM20 19H21V20H20zM21 19H22V20H21zM22 19H23V20H22zM23 19H24V20H23zM24 19H25V20H24zM0 20H1V21H0zM2 20H3V21H2zM3 20H4V21H3zM4 20H5V21H4zM6 20H7V21H6zM9 20H10V21H9zM12 20H13V21H12zM13 20H14V21H13zM14 20H15V21H14zM16 20H17V21H16zM17 20H18V21H17zM18 20H19V21H18zM19 20H20V21H19zM20 20H21V21H20zM21 20H22V21H21zM23 20H24V21H23zM0 21H1V22H0zM2 21H3V22H2zM3 21H4V22H3zM4 21H5V22H4zM6 21H7V22H6zM8 21H9V22H8zM9 21H10V22H9zM12 21H13V22H12zM13 21H14V22H13zM19 21H20V22H19zM20 21H21V22H20zM21 21H22V22H21zM22 21H23V22H22zM0 22H1V23H0zM2 22H3V23H2zM3 22H4V23H3zM4 22H5V23H4zM6 22H7V23H6zM9 22H10V23H9zM14 22H15V23H14zM15 22H16V23H15zM19 22H20V23H19zM20 22H21V23H20zM22 22H23V23H22zM24 22H25V23H24zM0 23H1V24H0zM6 23H7V24H6zM8 23H9V24H8zM11 23H12V24H11zM12 23H13V24H12zM13 23H14V24H13zM15 23H16V24H15zM16 23H17V24H16zM17 23H18V24H17zM21 23H22V24H21zM0 24H1V25H0zM1 24H2V25H1zM2 24H3V25H2zM3 24H4V25H3zM4 24H5V25H4zM5 24H6V25H5zM6 24H7V25H6zM8 24H9V25H8zM9 24H10V25H9zM11 24H12V25H11zM12 24H13V25H12zM13 24H14V25H13zM15 24H16V25H15zM16 24H17V25H16zM18 24H19V25H18zM19 24H20V25H19zM23 24H24V25H23zM24 24H25V25H24z"/></g></svg>
