<?xml version="1.0" encoding="UTF-8" standalone="no"?>
<!-- Created with Inkscape (http://www.inkscape.org/) -->

<svg
   xmlns:dc="http://purl.org/dc/elements/1.1/"
   xmlns:cc="http://creativecommons.org/ns#"
   xmlns:rdf="http://www.w3.org/1999/02/22-rdf-syntax-ns#"
   xmlns:svg="http://www.w3.org/2000/svg"
   xmlns="http://www.w3.org/2000/svg"
   xmlns:sodipodi="http://sodipodi.sourceforge.net/DTD/sodipodi-0.dtd"
   xmlns:inkscape="http://www.inkscape.org/namespaces/inkscape"
   version="1.1"
   id="svg2"
   xml:space="preserve"
   width="320.41064"
   height="157.332"
   viewBox="0 0 320.41064 157.332"
   sodipodi:docname="baqend.svg"
   inkscape:export-filename="/home/moellers/Projects/Talks/Streams/images/baqend.png"
   inkscape:export-xdpi="192.2034"
   inkscape:export-ydpi="192.2034"
   inkscape:version="0.92.2 2405546, 2018-03-11"><metadata
     id="metadata8"><rdf:RDF><cc:Work
         rdf:about=""><dc:format>image/svg+xml</dc:format><dc:type
           rdf:resource="http://purl.org/dc/dcmitype/StillImage" /><dc:title></dc:title></cc:Work></rdf:RDF></metadata><defs
     id="defs6" /><sodipodi:namedview
     pagecolor="#000000"
     bordercolor="#666666"
     borderopacity="1"
     objecttolerance="10"
     gridtolerance="10"
     guidetolerance="10"
     inkscape:pageopacity="0"
     inkscape:pageshadow="2"
     inkscape:window-width="1916"
     inkscape:window-height="1016"
     id="namedview4"
     showgrid="false"
     inkscape:zoom="2.0660813"
     inkscape:cx="66.284162"
     inkscape:cy="53.329481"
     inkscape:window-x="1920"
     inkscape:window-y="62"
     inkscape:window-maximized="0"
     inkscape:current-layer="g10" /><g
     id="g10"
     inkscape:groupmode="layer"
     inkscape:label="ink_ext_XXXXXX"
     transform="matrix(1.3333333,0,0,-1.3333333,0,157.332)"><path
       inkscape:connector-curvature="0"
       id="path14"
       style="fill:#ffffff;fill-opacity:1;fill-rule:nonzero;stroke:none;stroke-width:0.1"
       d="m 13.1008,47.002 c 0.7996,-0.2004 1.7,-0.2004 2.9004,-0.2004 5.2996,0 9.7,3.2004 9.7,10.1007 0,6.7012 -4.6004,10.2008 -9.8008,10.3008 h -2.7996 z m 0,29.9019 h 2.7996 c 4.7004,0 8.3008,4 8.3008,9.5004 0,4.9004 -2.2996,8.7004 -7.7,8.7004 -1.4004,0 -2.6008,-0.0996 -3.4004,-0.4 z M 0,103.605 c 4,0.9 9.20039,1.3 14.9004,1.3 6.3008,0 12.4004,-0.8 17.1016,-4.8 3.5996,-2.9999 5.0996,-7.5003 5.0996,-12.2007 0,-6.0004 -3.0996,-11.8008 -9.8008,-14.7008 v -0.4004 c 7.8008,-2.2 12.0012,-8.6996 12.0012,-16.1011 0,-5.5997 -1.8,-9.9004 -5,-13.2 -4,-4.4004 -10.8008,-6.8008 -22.1016,-6.8008 -5.00001,0 -9.2004,0.3 -12.2004,0.7 v 66.2038" /><path
       inkscape:connector-curvature="0"
       id="path16"
       style="fill:#ffffff;fill-opacity:1;fill-rule:nonzero;stroke:none;stroke-width:0.1"
       d="m 63.6992,61.0027 c -4.4004,-0.0996 -10.4004,-1.5 -10.4004,-8.3007 0,-4.9004 2.7,-6.7 4.7,-6.7 2.1008,0 4.5,1.2996 5.4004,4.2 0.2004,0.7003 0.3,1.5 0.3,2.3 z M 65.5,37.2012 64.7996,42.002 h -0.2 c -2.7004,-3.8008 -6.5,-5.6008 -10.8008,-5.6008 -7.4004,0 -12.9004,6.2004 -12.9004,14.9015 0,12.8008 11.3008,18.1004 22.4012,18.2 v 1.1004 c 0,3.8 -2.3008,6.6004 -6.9004,6.6004 -3.9004,0 -7.1004,-1 -10.0008,-2.8004 l -2.4004,8.8012 c 2.7,1.6 8.4004,3.7 15.2012,3.7 C 74.1008,86.9043 76.5,76.5035 76.5,66.6031 V 48.4023 c 0,-3.9003 0.2004,-7.9003 0.8008,-11.2011 H 65.5" /><path
       inkscape:connector-curvature="0"
       id="path18"
       style="fill:#ffffff;fill-opacity:1;fill-rule:nonzero;stroke:none;stroke-width:0.1"
       d="m 109.788,71.5035 c 0,12.6004 -2.09,20.5008 -8.47,20.5008 -5.9407,0 -8.9102,-8.1004 -8.9102,-20.8012 -0.1094,-13.7004 2.5301,-23.4015 8.9102,-23.4015 6.05,0 8.47,9.7011 8.47,23.7019 z m 13.42,-45.3023 c -6.38,2.3996 -13.53,5.8 -19.03,8.8 -1.65,0.8004 -2.86,1.4 -3.52,1.4 -14.4107,0 -22.1303,13.0019 -22.1303,35.0019 0,18.102 14.3782,33.2659 23.4873,46.5959 7.084,-12.739 21.346,-30.4978 21.346,-45.899 0,-16.7008 -2.683,-27.098 -9.613,-30.4984 v -0.5 c 4.73,-1.9004 9.9,-3.4004 14.52,-5 l -5.06,-9.9004" /><path
       inkscape:connector-curvature="0"
       id="path20"
       style="fill:#ffffff;fill-opacity:1;fill-rule:nonzero;stroke:none;stroke-width:0.1"
       d="m 149.308,66.2031 c 0,6.3004 -1.6,11.2008 -5.5,11.2008 -4.3,0 -6,-6.3008 -6.1,-11.2008 z m -11.7,-9.2004 c 0.2,-7.6004 4.6,-10.4011 10.4,-10.4011 3.7,0 7.001,0.8007 9.301,1.6004 l 1.8,-9.4004 c -3.401,-1.3004 -8.5,-2.2 -13.501,-2.2 -13.301,0 -20.601,8.8007 -20.601,24.1015 0,16.4004 8.5,26.2012 19.601,26.2012 10.501,0 16.601,-8.3008 16.601,-23.1016 0,-3.5 -0.1,-5.4004 -0.4,-6.8 h -23.201" /><path
       inkscape:connector-curvature="0"
       id="path22"
       style="fill:#ffffff;fill-opacity:1;fill-rule:nonzero;stroke:none;stroke-width:0.1"
       d="m 163.606,71.4031 c 0,5.4004 -0.301,10.1008 -0.4,14.7008 h 11.3 l 0.6,-5.6 h 0.2 c 2.601,3.9 6.801,6.4004 11.902,6.4004 9.299,0 13,-7.4004 13,-18.3012 V 37.2012 h -13.101 v 30.6019 c 0,4.2004 -1,8.1 -4.8,8.1 -2.2,0 -4.001,-1.5 -4.9,-4.3996 -0.401,-1 -0.7,-2.6004 -0.7,-4.5008 V 37.2012 h -13.101 v 34.2019" /><path
       inkscape:connector-curvature="0"
       id="path24"
       style="fill:#ffffff;fill-opacity:1;fill-rule:nonzero;stroke:none;stroke-width:0.1"
       d="m 226.807,67.3031 c 0,0.9 0,1.9 -0.1,2.9 -0.5,3.0004 -2.1,5.7 -4.701,5.7 -4.6,0 -6.299,-6.7 -6.299,-14.6004 0,-9.3007 2.5,-14.2011 6.2,-14.2011 1.599,0 3.5,0.9004 4.5,4.3007 0.3,0.7 0.4,1.7997 0.4,3 z m 13.101,39.1019 V 51.702 c 0,-4.7 0.2,-10 0.4,-14.5008 h -11.301 l -0.7,5.5008 h -0.2 c -1.8,-3.4004 -5.7,-6.3008 -10.2,-6.3008 -10.402,0 -15.201,11.5011 -15.201,25.2011 0,17.0012 7.4,25.302 15.701,25.302 4.3,0 7,-2.1 8.2,-4.9004 h 0.2 v 24.4011 h 13.101" /><path
       inkscape:connector-curvature="0"
       id="path26"
       style="fill:#ffffff;fill-opacity:1;fill-rule:nonzero;stroke:none;stroke-width:0.1"
       d="m 93.4781,40.509 c 0.1121,-0.0703 0.2215,-0.1457 0.3379,-0.2074 v -0.2379 c -2.093,-0.9074 -4.3789,-1.6235 -6.4219,-2.3871 l 2.2372,-4.7254 c 2.8222,1.1457 5.9843,2.7683 8.4171,4.2 0.7293,0.382 1.2645,0.6691 1.5567,0.6691 2.4889,0 4.5929,0.9363 6.2409,2.6887 H 93.4781" /><path
       inkscape:connector-curvature="0"
       id="path28"
       style="fill:#ffffff;fill-opacity:1;fill-rule:nonzero;stroke:none;stroke-width:0.1"
       d="m 99.7555,18.4871 c 0.3175,-1.2723 0.2246,-3.0281 0.6715,-3.0371 0.726,3.8273 2.339,10.6418 2.769,14.5012 0.285,2.5554 -1.048,4.0527 -2.731,4.0789 -1.74,0.0273 -3.1091,-1.5789 -2.8013,-4.2149 0.4422,-3.8054 1.3699,-7.5547 2.0918,-11.3281 z M 100.432,3.7500001e-8 C 97.4438,7.98594 94.8832,16.0371 94.4984,24.5605 c -0.1043,2.3282 0.3215,4.7618 0.9543,7.0204 0.7078,2.5254 1.7188,3.6066 4.8583,3.6066 3.807,0 4.388,-1.1184 4.976,-3.4062 0.683,-2.6614 1.19,-5.5059 1.019,-8.2227 C 105.793,15.3988 103.305,7.66211 100.432,3.7500001e-8" /></g></svg>