<?xml version="1.0" ?><!DOCTYPE svg  PUBLIC '-//W3C//DTD SVG 1.1//EN'  'http://www.w3.org/Graphics/SVG/1.1/DTD/svg11.dtd'><svg enable-background="new 0 0 200 200" height="200px" id="Layer_1" version="1.1" viewBox="0 0 200 200" width="200px" xml:space="preserve" xmlns="http://www.w3.org/2000/svg" xmlns:xlink="http://www.w3.org/1999/xlink"><g><g><path d="M200,172.939c0,1.807-0.69,3.613-2.067,4.99c-1.38,1.38-3.187,2.07-4.991,2.07H7.059    c-1.806,0-3.613-0.69-4.991-2.07C0.689,176.553,0,174.746,0,172.939V56h200V172.939z" fill="#EFEFEF"/><path d="M200,56H0V27.057c0-1.807,0.689-3.61,2.068-4.99C3.446,20.69,5.253,20,7.059,20h185.882    c1.805,0,3.611,0.69,4.991,2.067c1.377,1.38,2.067,3.184,2.067,4.99V56z" fill="#D9D8D7"/></g><g><rect fill="#81CF9B" height="7.917" width="75.907" x="17.647" y="153.613"/><rect fill="#CCCBCA" height="7.917" width="83.81" x="17.647" y="137.783"/><rect fill="#81CF9B" height="7.914" width="49.63" x="43.92" y="121.956"/><rect fill="#CCCBCA" height="7.914" width="49.631" x="17.647" y="90.299"/><rect fill="#81CF9B" height="7.914" width="24.816" x="17.647" y="74.469"/><rect fill="#CCCBCA" height="7.917" width="23.354" x="101.457" y="153.613"/><rect fill="#81CF9B" height="7.917" width="40.267" x="109.362" y="137.783"/><rect fill="#CCCBCA" height="7.914" width="23.357" x="101.457" y="121.956"/><rect fill="#CCCBCA" height="7.914" width="18.368" x="17.647" y="121.956"/><rect fill="#81CF9B" height="7.914" width="74.447" x="75.182" y="90.299"/><rect fill="#CCCBCA" height="7.914" width="74.444" x="50.368" y="74.469"/><rect fill="#81CF9B" height="7.917" width="49.636" x="132.718" y="153.613"/><rect fill="#CCCBCA" height="7.917" width="24.817" x="157.536" y="137.783"/><rect fill="#CCCBCA" height="7.914" width="24.814" x="132.722" y="121.956"/><rect fill="#CCCBCA" height="7.914" width="24.817" x="157.536" y="90.299"/></g><g><path d="M23.529,38.001c0,3.245-2.633,5.882-5.882,5.882c-3.25,0-5.883-2.637-5.883-5.882    c0-3.249,2.634-5.882,5.883-5.882C20.896,32.119,23.529,34.752,23.529,38.001z" fill="#D65A38"/><path d="M41.177,38.001c0,3.245-2.633,5.882-5.883,5.882c-3.249,0-5.882-2.637-5.882-5.882    c0-3.249,2.633-5.882,5.882-5.882C38.543,32.119,41.177,34.752,41.177,38.001z" fill="#F5B947"/><path d="M58.823,38.001c0,3.245-2.632,5.882-5.882,5.882c-3.249,0-5.882-2.637-5.882-5.882    c0-3.249,2.633-5.882,5.882-5.882C56.191,32.119,58.823,34.752,58.823,38.001z" fill="#71BF8C"/></g></g></svg>