<?xml version="1.0" ?><!DOCTYPE svg  PUBLIC '-//W3C//DTD SVG 1.1//EN'  'http://www.w3.org/Graphics/SVG/1.1/DTD/svg11.dtd'><svg enable-background="new 0 0 200 200" height="200px" id="Layer_1" version="1.1" viewBox="0 0 200 200" width="200px" xml:space="preserve" xmlns="http://www.w3.org/2000/svg" xmlns:xlink="http://www.w3.org/1999/xlink"><g><g><rect fill="#43D3E8" height="92.593" width="135.328" x="32.336" y="53.704"/><g><polygon fill="#FFFFFF" points="32.336,132.407 32.336,146.297 118.521,146.297 68.484,96.259    "/><polygon fill="#FFFFFF" points="125.254,75.636 54.593,146.297 167.664,146.297 167.664,118.045    "/></g><circle cx="89.387" cy="78.534" fill="#FFFFFF" r="10.769"/><rect fill="#242D3C" height="7.692" width="135.328" x="32.336" y="142.45"/></g><g><path d="M200,43.305h-21.938V21.367H200V43.305z M185.754,35.613h6.554V29.06h-6.554V35.613z" fill="#242D3C"/><path d="M21.937,43.305H0V21.367h21.937V43.305z M7.692,35.613h6.552V29.06H7.692V35.613z" fill="#242D3C"/><path d="M200,178.633h-21.938v-21.938H200V178.633z M185.754,170.94h6.554v-6.554h-6.554V170.94z" fill="#242D3C"/><path d="M21.937,178.633H0v-21.938h21.937V178.633z M7.692,170.94h6.552v-6.554H7.692V170.94z" fill="#242D3C"/></g><g><g><g><g><rect fill="#242D3C" height="3.846" width="7.692" x="185.185" y="39.459"/><path d="M192.877,149.135h-7.692v-7.559h7.692V149.135z M192.877,134.016h-7.692v-7.559h7.692V134.016z        M192.877,118.897h-7.692v-7.559h7.692V118.897z M192.877,103.778h-7.692V96.22h7.692V103.778z M192.877,88.66h-7.692v-7.559       h7.692V88.66z M192.877,73.541h-7.692v-7.559h7.692V73.541z M192.877,58.422h-7.692v-7.559h7.692V58.422z" fill="#242D3C"/><rect fill="#242D3C" height="3.847" width="7.692" x="185.185" y="156.694"/></g></g></g><g><g><g><rect fill="#242D3C" height="3.846" width="7.692" x="7.123" y="39.459"/><path d="M14.815,149.135H7.123v-7.559h7.692V149.135z M14.815,134.016H7.123v-7.559h7.692V134.016z        M14.815,118.897H7.123v-7.559h7.692V118.897z M14.815,103.778H7.123V96.22h7.692V103.778z M14.815,88.66H7.123v-7.559h7.692       V88.66z M14.815,73.541H7.123v-7.559h7.692V73.541z M14.815,58.422H7.123v-7.559h7.692V58.422z" fill="#242D3C"/><rect fill="#242D3C" height="3.847" width="7.692" x="7.123" y="156.694"/></g></g></g><g><g><g><rect fill="#242D3C" height="7.692" width="3.846" x="18.09" y="28.49"/><path d="M170.627,36.183h-7.435V28.49h7.435V36.183z M155.757,36.183h-7.434V28.49h7.434V36.183z        M140.888,36.183h-7.434V28.49h7.434V36.183z M126.021,36.183h-7.436V28.49h7.436V36.183z M111.15,36.183h-7.435V28.49h7.435       V36.183z M96.282,36.183h-7.436V28.49h7.436V36.183z M81.412,36.183h-7.434V28.49h7.434V36.183z M66.543,36.183h-7.434V28.49       h7.434V36.183z M51.674,36.183H44.24V28.49h7.434V36.183z M36.804,36.183h-7.434V28.49h7.434V36.183z" fill="#242D3C"/><rect fill="#242D3C" height="7.692" width="3.847" x="178.062" y="28.49"/></g></g></g><g><g><g><rect fill="#242D3C" height="7.692" width="3.846" x="18.09" y="163.817"/><path d="M170.627,171.51h-7.435v-7.692h7.435V171.51z M155.757,171.51h-7.434v-7.692h7.434V171.51z        M140.888,171.51h-7.434v-7.692h7.434V171.51z M126.021,171.51h-7.436v-7.692h7.436V171.51z M111.15,171.51h-7.435v-7.692       h7.435V171.51z M96.282,171.51h-7.436v-7.692h7.436V171.51z M81.412,171.51h-7.434v-7.692h7.434V171.51z M66.543,171.51h-7.434       v-7.692h7.434V171.51z M51.674,171.51H44.24v-7.692h7.434V171.51z M36.804,171.51h-7.434v-7.692h7.434V171.51z" fill="#242D3C"/><rect fill="#242D3C" height="7.692" width="3.847" x="178.062" y="163.817"/></g></g></g></g></g></svg>