<?xml version="1.0" ?><!DOCTYPE svg  PUBLIC '-//W3C//DTD SVG 1.1//EN'  'http://www.w3.org/Graphics/SVG/1.1/DTD/svg11.dtd'><svg enable-background="new 0 0 200 200" height="200px" id="Layer_1" version="1.1" viewBox="0 0 200 200" width="200px" xml:space="preserve" xmlns="http://www.w3.org/2000/svg" xmlns:xlink="http://www.w3.org/1999/xlink"><g><g><g><path d="M110.316,139.837c0-5.74,4.394-10.458,10.009-10.958c-0.6-3.313-1.453-6.54-2.566-9.645     c-5.113,2.385-11.29,0.503-14.167-4.469c-2.867-4.978-1.416-11.254,3.191-14.501c-2.154-2.537-4.513-4.893-7.05-7.048     c-3.247,4.606-9.523,6.055-14.493,3.192c-4.979-2.876-6.856-9.055-4.479-14.168c-3.104-1.113-6.326-1.967-9.64-2.565     c-0.506,5.612-5.216,10.008-10.958,10.008c-5.744,0-10.452-4.396-10.958-10.008c-3.313,0.598-6.536,1.452-9.641,2.565     c2.381,5.113,0.498,11.292-4.479,14.168c-4.971,2.863-11.247,1.414-14.49-3.192c-2.537,2.155-4.894,4.511-7.048,7.048     c4.602,3.247,6.054,9.525,3.182,14.499c-2.872,4.975-9.045,6.857-14.163,4.471c-1.109,3.104-1.967,6.331-2.566,9.645     c5.609,0.5,10.01,5.221,10.01,10.958c0.001,5.738-4.401,10.455-10.01,10.957c0.599,3.313,1.457,6.539,2.565,9.636     c5.119-2.377,11.292-0.493,14.164,4.48c2.873,4.976,1.42,11.25-3.184,14.499c2.156,2.535,4.512,4.894,7.049,7.049     c3.244-4.606,9.521-6.057,14.493-3.192c4.978,2.876,6.859,9.055,4.478,14.168c3.104,1.112,6.327,1.967,9.641,2.566     c0.503-5.613,5.215-10.01,10.958-10.011c5.744,0,10.454,4.396,10.958,10.011c3.313-0.6,6.536-1.454,9.642-2.566     c-2.378-5.113-0.5-11.292,4.478-14.168c4.97-2.866,11.248-1.416,14.493,3.192c2.54-2.155,4.896-4.514,7.052-7.049     c-4.608-3.249-6.059-9.525-3.195-14.499c2.879-4.976,9.056-6.857,14.169-4.48c1.114-3.097,1.967-6.323,2.566-9.636     C114.71,150.292,110.316,145.575,110.316,139.837z M60.163,180.614c-22.517,0-40.774-18.261-40.774-40.777     c0-22.515,18.258-40.775,40.774-40.775c22.52,0,40.777,18.261,40.777,40.775C100.939,162.354,82.683,180.614,60.163,180.614z" fill="#242D3C"/></g><circle cx="60.163" cy="139.837" fill="#F15424" r="16.31"/><path d="M60.193,171.231h-0.03c-2.047,0-4.095-0.198-6.084-0.59l1.099-5.601c1.63,0.319,3.308,0.481,4.985,0.481    L60.193,171.231z M66.314,170.629l-1.114-5.6c1.647-0.327,3.267-0.819,4.813-1.462l2.189,5.273    C70.31,169.626,68.329,170.228,66.314,170.629z M48.184,168.864c-1.894-0.781-3.72-1.756-5.428-2.896l3.167-4.748    c1.398,0.933,2.893,1.73,4.44,2.369L48.184,168.864z M77.627,165.934l-3.18-4.741c1.395-0.936,2.703-2.012,3.89-3.2l4.038,4.035    C80.927,163.478,79.329,164.792,77.627,165.934z M37.997,162.071c-1.453-1.449-2.77-3.045-3.912-4.745l4.74-3.184    c0.934,1.393,2.012,2.699,3.203,3.887L37.997,162.071z M86.278,157.272l-4.747-3.174c0.935-1.396,1.733-2.89,2.373-4.437    l5.274,2.185C88.396,153.739,87.42,155.564,86.278,157.272z M31.172,151.907c-0.79-1.895-1.394-3.875-1.795-5.887l5.598-1.118    c0.328,1.644,0.822,3.262,1.466,4.811L31.172,151.907z M90.962,145.955l-5.601-1.106c0.324-1.638,0.488-3.323,0.488-5.012v-0.121    h5.708v0.091C91.558,141.896,91.357,143.954,90.962,145.955z M28.768,139.897v-0.119c0-1.979,0.196-4.016,0.583-5.995l5.603,1.097    c-0.317,1.619-0.478,3.287-0.478,4.957L28.768,139.897z M85.34,134.718c-0.331-1.643-0.828-3.26-1.477-4.807l5.265-2.206    c0.794,1.893,1.402,3.873,1.808,5.885L85.34,134.718z M36.399,130.063l-5.277-2.174c0.779-1.894,1.751-3.722,2.891-5.432    l4.751,3.164C37.833,127.02,37.038,128.514,36.399,130.063z M81.471,125.485c-0.938-1.391-2.017-2.695-3.21-3.88l4.021-4.051    c1.457,1.446,2.776,3.04,3.922,4.738L81.471,125.485z M41.951,121.722l-4.046-4.026c1.445-1.453,3.04-2.771,4.741-3.916    l3.189,4.734C44.442,119.452,43.136,120.531,41.951,121.722z M74.358,118.423c-1.401-0.931-2.896-1.724-4.444-2.358l2.167-5.281    c1.894,0.776,3.723,1.747,5.435,2.885L74.358,118.423z M50.263,116.128l-2.202-5.268c1.896-0.792,3.876-1.397,5.887-1.802    l1.122,5.598C53.428,114.985,51.811,115.48,50.263,116.128z M65.096,114.623c-1.614-0.313-3.274-0.472-4.933-0.472l-0.089,0.001    v-5.709v2.854l0.024-2.854c0.003,0,0.009,0,0.013,0c2.083,0,4.104,0.193,6.072,0.576L65.096,114.623z" fill="#242D3C"/></g><g><g><path d="M172.35,59.938c0-3.699,2.833-6.735,6.444-7.056c-0.381-2.133-0.929-4.21-1.649-6.207     c-3.294,1.533-7.268,0.325-9.12-2.886c-1.847-3.196-0.906-7.239,2.056-9.332c-1.391-1.63-2.911-3.151-4.538-4.539     c-2.092,2.964-6.136,3.903-9.334,2.06c-3.21-1.856-4.418-5.828-2.887-9.123c-1.995-0.717-4.074-1.266-6.207-1.649     c-0.317,3.609-3.355,6.443-7.054,6.443c-3.697,0-6.726-2.834-7.054-6.443c-2.132,0.383-4.212,0.932-6.206,1.649     c1.529,3.294,0.321,7.267-2.886,9.123c-3.199,1.843-7.243,0.904-9.328-2.06c-1.636,1.388-3.153,2.909-4.545,4.539     c2.97,2.093,3.9,6.137,2.056,9.332c-1.853,3.212-5.827,4.419-9.12,2.886c-0.712,1.997-1.263,4.074-1.649,6.207     c3.611,0.32,6.444,3.358,6.444,7.056c0.002,3.699-2.833,6.727-6.444,7.054c0.386,2.134,0.938,4.213,1.649,6.21     c3.292-1.533,7.268-0.325,9.12,2.885c1.847,3.196,0.914,7.24-2.056,9.324c1.392,1.64,2.909,3.151,4.545,4.545     c2.083-2.97,6.129-3.899,9.328-2.055c3.208,1.853,4.415,5.827,2.886,9.121c1.994,0.711,4.074,1.264,6.206,1.649     c0.328-3.609,3.356-6.445,7.054-6.445c3.7,0,6.736,2.836,7.054,6.445c2.133-0.385,4.212-0.938,6.209-1.649     c-1.533-3.294-0.325-7.266,2.884-9.121c3.199-1.845,7.243-0.916,9.335,2.055c1.628-1.394,3.149-2.905,4.54-4.545     c-2.964-2.083-3.904-6.129-2.058-9.324c1.853-3.211,5.828-4.417,9.12-2.885c0.721-1.997,1.269-4.076,1.649-6.21     C175.183,66.666,172.351,63.637,172.35,59.938z M140.061,77.567c-9.739,0-17.628-7.891-17.628-17.628     c0-9.736,7.889-17.627,17.628-17.627c9.738,0,17.627,7.891,17.627,17.627C157.688,69.676,149.799,77.567,140.061,77.567z" fill="#F15424"/><path d="M140.061,81.644c-11.969,0-21.704-9.737-21.704-21.706c0-11.968,9.735-21.704,21.704-21.704     s21.705,9.736,21.705,21.704C161.766,71.907,152.029,81.644,140.061,81.644z M140.061,46.389c-7.472,0-13.55,6.078-13.55,13.55     c0,7.472,6.078,13.551,13.55,13.551c7.473,0,13.551-6.079,13.551-13.551C153.611,52.467,147.533,46.389,140.061,46.389z" fill="#242D3C"/></g><path d="M140.192,119.88h-0.13c-2.018,0-4.063-0.106-6.058-0.307l0.571-5.68c1.808,0.183,3.658,0.279,5.486,0.279    h0.13V119.88z M146.257,119.559l-0.583-5.678c1.814-0.187,3.637-0.463,5.427-0.835l1.156,5.587    C150.278,119.047,148.263,119.355,146.257,119.559z M158.134,117.107l-1.723-5.442c1.74-0.552,3.473-1.194,5.143-1.92l2.268,5.24    C161.966,115.785,160.056,116.493,158.134,117.107z M169.266,112.294l-2.79-4.985c1.589-0.886,3.156-1.867,4.653-2.92l3.275,4.676    C172.748,110.224,171.024,111.313,169.266,112.294z M179.198,105.336l-3.736-4.319c1.389-1.191,2.721-2.464,3.979-3.791    l4.144,3.926C182.2,102.61,180.719,104.025,179.198,105.336z M187.528,96.537l-4.518-3.49c1.12-1.443,2.172-2.964,3.134-4.511    l4.849,3.019C189.926,93.266,188.761,94.941,187.528,96.537z M193.936,86.241l-5.128-2.504c0.804-1.65,1.526-3.345,2.159-5.054    l5.353,1.974C195.631,82.546,194.826,84.42,193.936,86.241z M198.123,74.857l-5.527-1.416c0.449-1.767,0.819-3.575,1.096-5.385    l5.644,0.853C199.033,70.902,198.627,72.904,198.123,74.857z M80.813,69.047c-0.307-1.992-0.511-4.02-0.613-6.038l5.703-0.292    c0.094,1.826,0.274,3.667,0.55,5.463L80.813,69.047z M199.933,62.87l-5.708-0.279c0.048-0.872,0.069-1.769,0.069-2.652    c0-0.951-0.024-1.906-0.078-2.843l5.706-0.291c0.053,1.032,0.078,2.089,0.078,3.134C200,60.917,199.976,61.902,199.933,62.87z     M85.9,57.221l-5.704-0.277c0.099-2.021,0.301-4.049,0.602-6.039l5.646,0.851C86.17,53.557,85.987,55.399,85.9,57.221z     M193.662,51.63c-0.28-1.801-0.655-3.607-1.111-5.372l5.524-1.44c0.51,1.953,0.922,3.958,1.224,5.95L193.662,51.63z     M87.539,46.372l-5.525-1.419c0.502-1.957,1.11-3.906,1.809-5.8l5.355,1.987C88.547,42.843,87.995,44.606,87.539,46.372z     M190.897,41.019c-0.634-1.709-1.368-3.4-2.173-5.042l5.117-2.527c0.896,1.816,1.705,3.688,2.412,5.579L190.897,41.019z     M91.341,36.091l-5.122-2.515c0.887-1.806,1.877-3.592,2.946-5.306l4.844,3.015C93.041,32.836,92.148,34.45,91.341,36.091z     M186.054,31.186c-0.97-1.547-2.034-3.063-3.154-4.499l4.511-3.505c1.236,1.59,2.406,3.259,3.474,4.97L186.054,31.186z     M97.146,26.777l-4.511-3.493c1.231-1.592,2.559-3.143,3.952-4.602l4.137,3.929C99.465,23.936,98.263,25.34,97.146,26.777z     M179.314,22.518c-1.259-1.318-2.603-2.593-3.984-3.779l3.714-4.332c1.521,1.302,3.007,2.714,4.399,4.173L179.314,22.518z     M104.703,18.816l-3.724-4.325c1.53-1.314,3.141-2.565,4.798-3.722l3.265,4.679C107.551,16.491,106.085,17.626,104.703,18.816z     M170.978,15.381c-1.491-1.047-3.061-2.023-4.658-2.904l2.771-4.997c1.764,0.98,3.498,2.063,5.149,3.215L170.978,15.381z     M113.696,12.535l-2.776-4.982c1.761-0.982,3.591-1.889,5.446-2.686l2.254,5.246C116.951,10.83,115.288,11.651,113.696,12.535z     M161.384,10.064c-1.67-0.72-3.404-1.357-5.147-1.903l1.703-5.45c1.92,0.602,3.837,1.312,5.696,2.104L161.384,10.064z     M123.772,8.198l-1.715-5.446c1.925-0.605,3.902-1.122,5.877-1.526l1.148,5.595C127.299,7.188,125.513,7.65,123.772,8.198z     M150.92,6.796c-1.784-0.363-3.616-0.636-5.432-0.818l0.565-5.68c2.007,0.198,4.022,0.5,5.997,0.899L150.92,6.796z M134.514,5.99    l-0.576-5.678c1.998-0.203,4.033-0.311,6.058-0.313L140,5.706C138.167,5.707,136.325,5.807,134.514,5.99z" fill="#242D3C"/></g></g></svg>