<?xml version="1.0" encoding="UTF-8" standalone="no"?>
<svg
   xmlns:dc="http://purl.org/dc/elements/1.1/"
   xmlns:cc="http://creativecommons.org/ns#"
   xmlns:rdf="http://www.w3.org/1999/02/22-rdf-syntax-ns#"
   xmlns:svg="http://www.w3.org/2000/svg"
   xmlns="http://www.w3.org/2000/svg"
   xmlns:sodipodi="http://sodipodi.sourceforge.net/DTD/sodipodi-0.dtd"
   xmlns:inkscape="http://www.inkscape.org/namespaces/inkscape"
   version="1.1"
   viewBox="0 0 64 64"
   id="svg4"
   sodipodi:docname="microsoft-edge.svg"
   width="64"
   height="64"
   inkscape:version="0.92.2 2405546, 2018-03-11">
  <metadata
     id="metadata10">
    <rdf:RDF>
      <cc:Work
         rdf:about="">
        <dc:format>image/svg+xml</dc:format>
        <dc:type
           rdf:resource="http://purl.org/dc/dcmitype/StillImage" />
        <dc:title></dc:title>
      </cc:Work>
    </rdf:RDF>
  </metadata>
  <defs
     id="defs8" />
  <sodipodi:namedview
     pagecolor="#ffffff"
     bordercolor="#666666"
     borderopacity="1"
     objecttolerance="10"
     gridtolerance="10"
     guidetolerance="10"
     inkscape:pageopacity="0"
     inkscape:pageshadow="2"
     inkscape:window-width="1916"
     inkscape:window-height="1016"
     id="namedview6"
     showgrid="false"
     inkscape:zoom="10.429825"
     inkscape:cx="44.443817"
     inkscape:cy="18.224003"
     inkscape:window-x="0"
     inkscape:window-y="62"
     inkscape:window-maximized="0"
     inkscape:current-layer="svg4" />
  <path
     d="m 20.175035,37.289349 c 0,1.357599 0.202759,2.59178 0.617091,3.702543 0.440779,1.093132 1.013792,2.071662 1.745485,2.926773 0.731693,0.855112 1.586804,1.586805 2.59178,2.203895 0.969714,0.617091 2.027584,1.128395 3.155978,1.525096 1.119579,0.405516 2.292051,0.705247 3.482154,0.899189 1.207735,0.193943 2.380208,0.290914 3.570312,0.290914 1.498648,0 2.89151,-0.114602 4.213847,-0.352623 1.322337,-0.246836 2.609412,-0.573013 3.878855,-0.987345 1.269444,-0.414333 2.49481,-0.908005 3.720175,-1.472202 1.234181,-0.564197 2.485994,-1.181288 3.773069,-1.868903 v 11.953928 c -1.43694,0.705246 -2.847433,1.29589 -4.257925,1.807193 -1.410493,0.493673 -2.820987,0.925637 -4.257926,1.269445 -1.43694,0.352623 -2.89151,0.61709 -4.381344,0.775771 -1.489832,0.15868 -3.014928,0.246835 -4.601733,0.246835 -2.11574,0 -4.160954,-0.246835 -6.126828,-0.731693 -1.965875,-0.484856 -3.808331,-1.181287 -5.536185,-2.098108 -1.727854,-0.91682 -3.305843,-2.027584 -4.742783,-3.332289 -1.445755,-1.304706 -2.671121,-2.776908 -3.702543,-4.40779 -1.031424,-1.630883 -1.824826,-3.420446 -2.397838,-5.342243 -0.555382,-1.921796 -0.837481,-3.967012 -0.837481,-6.135644 0,-2.318498 0.317361,-4.522393 0.952083,-6.629317 0.643537,-2.115739 1.551543,-4.037536 2.750461,-5.800652 1.190103,-1.763116 2.644675,-3.33229 4.363712,-4.698705 1.719039,-1.366414 3.649651,-2.485993 5.800653,-3.34992 -1.172473,1.172472 -2.089293,2.556518 -2.732831,4.169769 -0.661168,1.604436 -1.0755,3.217687 -1.260627,4.830939 h 20.081892 c 0,-2.027584 -0.202757,-3.7907 -0.61709,-5.30698 -0.414332,-1.516279 -1.075501,-2.776908 -2.001137,-3.773068 -0.91682,-1.004976 -2.098108,-1.763117 -3.552679,-2.256789 -1.454571,-0.502488 -3.208871,-0.758141 -5.262902,-0.758141 -2.424285,0 -4.848569,0.352624 -7.272854,1.084318 -2.424284,0.705245 -4.725151,1.719037 -6.911415,2.997296 -2.186264,1.295891 -4.196217,2.820987 -6.029857,4.566472 C 6.5549628,25.000429 5.0122363,26.895778 3.7604237,28.949809 4.0248912,26.569602 4.553826,24.277551 5.2855192,22.100103 6.0172125,19.922654 6.9869263,17.89507 8.150583,16.017352 9.31424,14.16608 10.680655,12.473489 12.241012,10.957209 13.80137,9.4409291 15.529224,8.1362228 17.442205,7.0783531 19.355186,6.0204834 21.38277,5.165372 23.586665,4.5923593 c 2.203895,-0.5024882 4.54884,-0.8022178 7.017202,-0.8022178 1.445755,0 2.882695,0.1322336 4.319635,0.3878855 1.436939,0.2644674 2.838617,0.6170907 4.205032,1.0755009 2.715199,0.9344515 5.139483,2.2391575 7.272855,3.8964867 2.13337,1.6749594 3.922932,3.5791254 5.377503,5.7565744 1.454572,2.177448 2.556519,4.584102 3.314659,7.20233 0.75814,2.618226 1.146025,5.342241 1.146025,8.172042 v 7.008388 z"
     id="path2"
     inkscape:connector-curvature="0"
     style="fill:#0078d7;stroke-width:0.88155812" />
</svg>
