<?xml version="1.0" encoding="UTF-8" standalone="no"?>
<svg
   xmlns:dc="http://purl.org/dc/elements/1.1/"
   xmlns:cc="http://creativecommons.org/ns#"
   xmlns:rdf="http://www.w3.org/1999/02/22-rdf-syntax-ns#"
   xmlns:svg="http://www.w3.org/2000/svg"
   xmlns="http://www.w3.org/2000/svg"
   xmlns:sodipodi="http://sodipodi.sourceforge.net/DTD/sodipodi-0.dtd"
   xmlns:inkscape="http://www.inkscape.org/namespaces/inkscape"
   viewBox="0 0 120 120"
   version="1.1"
   id="svg22"
   sodipodi:docname="opera.svg"
   inkscape:version="0.92.2 2405546, 2018-03-11">
  <metadata
     id="metadata28">
    <rdf:RDF>
      <cc:Work
         rdf:about="">
        <dc:format>image/svg+xml</dc:format>
        <dc:type
           rdf:resource="http://purl.org/dc/dcmitype/StillImage" />
      </cc:Work>
    </rdf:RDF>
  </metadata>
  <defs
     id="defs26" />
  <sodipodi:namedview
     pagecolor="#ffffff"
     bordercolor="#666666"
     borderopacity="1"
     objecttolerance="10"
     gridtolerance="10"
     guidetolerance="10"
     inkscape:pageopacity="0"
     inkscape:pageshadow="2"
     inkscape:window-width="1916"
     inkscape:window-height="1016"
     id="namedview24"
     showgrid="false"
     inkscape:zoom="3.9333333"
     inkscape:cx="-10.11936"
     inkscape:cy="49.060844"
     inkscape:window-x="0"
     inkscape:window-y="62"
     inkscape:window-maximized="0"
     inkscape:current-layer="svg22" />
  <linearGradient
     id="a"
     gradientTransform="matrix(0,97.396584,-97.396584,0,51.620814,11.389501)"
     gradientUnits="userSpaceOnUse"
     spreadMethod="pad"
     x1="0"
     x2="1"
     y1="0"
     y2="0">
    <stop
       offset="0"
       stop-color="#ff1b2d"
       id="stop2" />
    <stop
       offset=".3"
       stop-color="#ff1b2d"
       id="stop4" />
    <stop
       offset=".61"
       stop-color="#ff1b2d"
       id="stop6" />
    <stop
       offset="1"
       stop-color="#a70014"
       id="stop8" />
  </linearGradient>
  <linearGradient
     id="b"
     gradientTransform="matrix(0,86.142511,-86.142511,0,76.85435,17.130095)"
     gradientUnits="userSpaceOnUse"
     spreadMethod="pad"
     x1="0"
     x2="1"
     y1="0"
     y2="0">
    <stop
       offset="0"
       stop-color="#9c0000"
       id="stop11" />
    <stop
       offset=".7"
       stop-color="#ff4b4b"
       id="stop13" />
    <stop
       offset="1"
       stop-color="#ff4b4b"
       id="stop15" />
  </linearGradient>
  <g
     id="g837"
     transform="matrix(1.0809512,0,0,1.0809512,-4.8570707,-4.8570707)">
    <path
       id="path18"
       d="M 60,9.75 C 32.25,9.75 9.75,32.25 9.75,60 v 0 c 0,26.95 21.22,48.94 47.86,50.19 v 0 c 0.8,0.04 1.59,0.06 2.39,0.06 v 0 c 12.87,0 24.6,-4.84 33.49,-12.79 v 0 c -5.89,3.91 -12.78,6.15 -20.14,6.15 v 0 c -11.97,0 -22.68,-5.94 -29.89,-15.3 v 0 C 37.9,81.75 34.31,72.06 34.06,61.18 v 0 c 0,-0.03 0,-2.34 0,-2.37 v 0 c 0.25,-10.88 3.84,-20.58 9.4,-27.13 v 0 c 7.21,-9.36 17.93,-15.3 29.89,-15.3 v 0 c 7.36,0 14.25,2.25 20.14,6.16 v 0 C 84.65,14.63 72.98,9.8 60.19,9.75 v 0 c -0.06,0 -0.13,0 -0.19,0 z"
       style="fill:url(#a)"
       inkscape:connector-curvature="0" />
    <path
       id="path20"
       d="m 43.46,31.68 c 4.61,-5.44 10.57,-8.73 17.07,-8.73 v 0 c 14.63,0 26.49,16.59 26.49,37.04 v 0 c 0,20.46 -11.86,37.04 -26.49,37.04 v 0 c -6.51,0 -12.46,-3.28 -17.07,-8.72 v 0 c 7.21,9.36 17.92,15.3 29.89,15.3 v 0 c 7.36,0 14.25,-2.25 20.14,-6.15 v 0 C 103.78,88.26 110.25,74.89 110.25,60 v 0 c 0,-14.88 -6.47,-28.26 -16.76,-37.46 v 0 C 87.6,18.63 80.71,16.39 73.35,16.39 v 0 c -11.97,0 -22.68,5.94 -29.89,15.3"
       style="fill:url(#b)"
       inkscape:connector-curvature="0" />
  </g>
</svg>
